<?xml version="1.0" encoding="utf-8"?><svg version="1.1" id="Layer_1" xmlns="http://www.w3.org/2000/svg" xmlns:xlink="http://www.w3.org/1999/xlink" x="0px" y="0px" width="122.881px" height="122.88px" viewBox="0 0 122.881 122.88" enable-background="new 0 0 122.881 122.88" xml:space="preserve"><g><path d="M61.44,35.174c7.253,0,13.82,2.94,18.572,7.694c4.754,4.753,7.693,11.319,7.693,18.572c0,7.253-2.939,13.819-7.693,18.572 c-4.752,4.754-11.318,7.694-18.572,7.694c-7.252,0-13.819-2.94-18.572-7.694c-4.753-4.753-7.693-11.319-7.693-18.572 c0-7.252,2.94-13.819,7.693-18.572C47.621,38.114,54.188,35.174,61.44,35.174L61.44,35.174z M61.44,0 c16.966,0,32.326,6.877,43.445,17.996s17.996,26.479,17.996,43.444c0,16.967-6.877,32.326-17.996,43.444 C93.766,116.003,78.406,122.88,61.44,122.88c-16.966,0-32.325-6.877-43.444-17.996C6.877,93.766,0,78.406,0,61.439 c0-16.965,6.877-32.325,17.996-43.444C29.115,6.877,44.474,0,61.44,0L61.44,0z M100.012,22.869 C90.141,12.998,76.504,6.893,61.44,6.893c-15.063,0-28.7,6.105-38.571,15.976C12.999,32.74,6.893,46.376,6.893,61.439 c0,15.063,6.105,28.701,15.976,38.571c9.871,9.871,23.508,15.976,38.571,15.976c15.064,0,28.701-6.104,38.572-15.976 c9.869-9.87,15.975-23.508,15.975-38.571C115.986,46.376,109.881,32.74,100.012,22.869L100.012,22.869z M75.139,47.741 c-3.506-3.505-8.348-5.674-13.699-5.674c-5.35,0-10.193,2.168-13.698,5.674c-3.506,3.505-5.674,8.349-5.674,13.698 c0,5.351,2.168,10.193,5.674,13.699c3.505,3.505,8.349,5.674,13.698,5.674c5.351,0,10.193-2.169,13.699-5.674 c3.506-3.506,5.674-8.349,5.674-13.699C80.813,56.09,78.645,51.247,75.139,47.741L75.139,47.741z"/></g></svg>